<svg width="60" height="57" viewBox="0 0 60 57" fill="none"
    xmlns="http://www.w3.org/2000/svg">
    <path d="M20 29.3C25.1362 29.3 29.3 25.1362 29.3 20C29.3 14.8637 25.1362 10.7 20 10.7C14.8637 10.7 10.7 14.8637 10.7 20C10.7 25.1362 14.8637 29.3 20 29.3Z" fill="#FFCE31"/>
    <path d="M23.7 9.1L20 0L16.3 9.1C17.5 8.9 18.8 8.8 20 8.8C21.3 8.8 22.5 8.9 23.7 9.1Z" fill="#FFCE31"/>
    <path d="M16.3 30.9L20 40L23.7 30.9C22.5 31.1 21.2 31.2 20 31.2C18.7 31.2 17.5 31.1 16.3 30.9Z" fill="#FFCE31"/>
    <path d="M30.9 23.7L40 20L30.9 16.3C31.1 17.5 31.2 18.8 31.2 20C31.2 21.3 31.1 22.5 30.9 23.7Z" fill="#FFCE31"/>
    <path d="M9.1 16.3L0 20L9.1 23.7C8.9 22.5 8.8 21.2 8.8 20C8.8 18.7 8.9 17.5 9.1 16.3Z" fill="#FFCE31"/>
    <path d="M30.3 15L34.1 5.89999L25 9.69999C26 10.4 27 11.2 27.9 12.1C28.8 13 29.6 13.9 30.3 15Z" fill="#FFCE31"/>
    <path d="M9.69999 25L5.89999 34.1L15 30.3C14 29.6 13 28.8 12.1 27.9C11.2 27 10.4 26.1 9.69999 25Z" fill="#FFCE31"/>
    <path d="M25 30.3L34.1 34.1L30.3 25C29.6 26 28.8 27 27.9 27.9C27 28.8 26.1 29.6 25 30.3Z" fill="#FFCE31"/>
    <path d="M15 9.69999L5.89999 5.89999L9.69999 15C10.4 14 11.2 13 12.1 12.1C13 11.2 13.9 10.4 15 9.69999Z" fill="#FFCE31"/>
    <path d="M15.2 54.1C14.2 54.1 13.2 53.9 12.3 53.6C8.49999 52.3 5.89999 48.7 5.89999 44.6C5.89999 41.9 7.09999 39.3 9.09999 37.5C9.59999 37 10.2 36.6 10.8 36.3L11.4 34.1C12.9 28.6 17.9 24.8 23.5 24.8C24.1 24.8 24.6 24.8 25.3 24.9L26.8 25.2L27 24.7C29.3 20.6 33.6 18 38.2 18C45.3 18 51 23.8 51 31V32.3C51.5 32.5 52.1 32.8 52.6 33.1C56 35.1 58.1 38.8 58.1 42.8C58.1 48 54.6 52.5 49.5 53.7C48.7 53.9 47.8 54 47 54L15.2 54.1Z" fill="white"/>
    <path d="M38.3 20.1C44.3 20.1 49.2 25.1 49.2 31.2V32.1C46.7 32.3 44.4 33.3 42.6 34.9C43.9 34.1 45.5 33.7 47.2 33.7C47.8 33.7 48.4 33.8 49 33.9C50 34.1 50.9 34.5 51.8 35C54.5 36.6 56.4 39.6 56.4 43C56.4 47.4 53.4 51.1 49.3 52C48.6 52.2 48 52.2 47.2 52.2H15.2C14.4 52.2 13.6 52.1 12.9 51.8C9.9 50.8 7.8 48 7.8 44.6C7.8 42.3 8.8 40.3 10.4 38.9C11.1 38.3 11.9 37.8 12.8 37.5C13.6 37.2 14.4 37.1 15.3 37.1C17.7 37.1 19.8 38.3 21.2 40H21.3C19.7 37 16.8 35 13.3 34.6C14.6 30 18.7 26.7 23.6 26.7C24.1 26.7 24.6 26.8 25.1 26.8C26.1 26.9 27 27.2 27.9 27.6C31.2 29.1 33.6 32.2 34.2 36V35.9C34.2 31.6 32 27.9 28.8 25.7C30.6 22.4 34.1 20.1 38.3 20.1ZM38.3 16.4C33.3 16.4 28.6 19 25.9 23.3H25.6C24.8 23.2 24.2 23.1 23.5 23.1C17.1 23.1 11.3 27.5 9.6 33.7L9.2 35.2C8.7 35.5 8.3 35.8 7.9 36.2C5.4 38.3 4 41.4 4 44.7C4 49.6 7.1 53.9 11.7 55.5C12.8 55.9 14 56.1 15.2 56.1H47.1C48.1 56.1 49 56 50 55.8C55.9 54.4 60 49.2 60 43.1C60 38.5 57.5 34.1 53.5 31.8L52.9 31.5V31.4C52.9 23 46.4 16.4 38.3 16.4Z" fill="#75D6FF"/>
</svg>
