<svg width="60" height="60" viewBox="0 0 60 60" fill="none"
    xmlns="http://www.w3.org/2000/svg">
    <path d="M18 26.4C22.6392 26.4 26.4 22.6392 26.4 18C26.4 13.3608 22.6392 9.6 18 9.6C13.3608 9.6 9.60001 13.3608 9.60001 18C9.60001 22.6392 13.3608 26.4 18 26.4Z" fill="#FFCE31"/>
    <path d="M21.4 8.2L18 0L14.6 8.2C15.7 8 16.8 7.9 18 7.9C19.2 7.9 20.3 8 21.4 8.2Z" fill="#FFCE31"/>
    <path d="M14.6 27.8L18 36L21.4 27.8C20.3 28 19.2 28.1 18 28.1C16.8 28.1 15.7 28 14.6 27.8Z" fill="#FFCE31"/>
    <path d="M27.8 21.4L36 18L27.8 14.6C28 15.7 28.1 16.8 28.1 18C28.1 19.2 28 20.3 27.8 21.4Z" fill="#FFCE31"/>
    <path d="M8.2 14.6L0 18L8.2 21.4C8 20.3 7.9 19.2 7.9 18C7.9 16.8 8 15.7 8.2 14.6Z" fill="#FFCE31"/>
    <path d="M27.3 13.5L30.7 5.3L22.5 8.7C23.4 9.3 24.3 10 25.1 10.9C26 11.7 26.7 12.6 27.3 13.5Z" fill="#FFCE31"/>
    <path d="M8.7 22.5L5.3 30.7L13.5 27.3C12.6 26.7 11.7 26 10.9 25.1C10 24.3 9.3 23.5 8.7 22.5Z" fill="#FFCE31"/>
    <path d="M22.5 27.3L30.7 30.7L27.3 22.5C26.7 23.4 26 24.3 25.1 25.1C24.3 26 23.5 26.7 22.5 27.3Z" fill="#FFCE31"/>
    <path d="M13.5 8.7L5.3 5.3L8.7 13.5C9.3 12.6 10 11.7 10.9 10.9C11.7 10 12.6 9.3 13.5 8.7Z" fill="#FFCE31"/>
    <path d="M22 31.5C21.2 31.5 20.3 31.4 19.5 31.1C16.3 30 14.1 27 14.1 23.6C14.1 21.3 15.1 19.2 16.8 17.7C17.2 17.3 17.7 17 18.2 16.7L18.7 14.9C20 10.4 24.2 7.2 29 7.2C29.5 7.2 30 7.2 30.5 7.3C30.9 7.4 31.4 7.5 31.8 7.6L32 7.2C33.9 3.8 37.6 1.6 41.5 1.6C47.5 1.6 52.4 6.4 52.4 12.4V13.5C52.9 13.7 53.3 13.9 53.7 14.1C56.6 15.8 58.4 18.9 58.4 22.2C58.4 26.6 55.4 30.3 51.1 31.3C50.4 31.5 49.7 31.5 49 31.5H22Z" fill="white"/>
    <path d="M41.6 3.1C46.7 3.1 50.9 7.2 50.9 12.3V13C48.8 13.2 46.8 14 45.3 15.3C46.4 14.6 47.8 14.3 49.2 14.3C49.7 14.3 50.2 14.4 50.7 14.4C51.5 14.6 52.3 14.9 53.1 15.3C55.4 16.6 57 19.1 57 22C57 25.7 54.4 28.8 51 29.5C50.4 29.6 49.9 29.7 49.3 29.7H22C21.3 29.7 20.6 29.6 20 29.4C17.5 28.6 15.7 26.2 15.7 23.4C15.7 21.5 16.5 19.8 17.9 18.7C18.5 18.2 19.2 17.8 20 17.5C20.7 17.3 21.4 17.1 22.1 17.1C24.1 17.1 26 18.1 27.1 19.6H27.2C25.9 17.1 23.3 15.4 20.4 15.1C21.5 11.3 25 8.5 29.2 8.5C29.6 8.5 30.1 8.5 30.5 8.6C31.3 8.7 32.2 9 32.9 9.3C35.7 10.5 37.8 13.2 38.2 16.3V16.2C38.2 12.6 36.4 9.5 33.6 7.7C35 5.1 38.1 3.1 41.6 3.1ZM41.6 0C37.3 0 33.4 2.2 31.1 5.7H30.8C30.1 5.6 29.6 5.6 29 5.6C23.5 5.6 18.7 9.2 17.2 14.5L16.8 15.7C16.4 15.9 16 16.2 15.7 16.5C13.6 18.3 12.4 20.9 12.4 23.6C12.4 27.7 15 31.3 18.9 32.6C19.9 32.9 20.9 33.1 21.9 33.1H49C49.8 33.1 50.6 33 51.5 32.8C56.5 31.7 60 27.3 60 22.2C60 18.3 57.9 14.7 54.5 12.8C54.3 12.7 54.2 12.6 54 12.5V12.4C54 5.6 48.4 0 41.6 0Z" fill="#B6C1D1"/>
    <path d="M26.8 44C26.2 45.6 26.7 47.2 27.9 47.6C29.1 48 30.5 47.1 31.1 45.5C31.8 43.7 31.8 41.1 31.4 38.2C29.1 40.2 27.4 42.2 26.8 44Z" fill="#75D6FF"/>
    <path d="M39.9 45.6C40.6 43.8 40.6 41.2 40.2 38.3C38 40.2 36.4 42.2 35.7 44.1C35.1 45.7 35.6 47.3 36.8 47.7C38 48.1 39.3 47.1 39.9 45.6Z" fill="#75D6FF"/>
    <path d="M49 38.3C46.8 40.2 45.2 42.2 44.5 44.1C43.9 45.7 44.4 47.3 45.6 47.7C46.8 48.1 48.2 47.2 48.8 45.6C49.4 43.7 49.4 41.2 49 38.3Z" fill="#75D6FF"/>
    <path d="M17.9 44C17.3 45.6 17.8 47.2 19 47.6C20.2 48 21.6 47.1 22.2 45.5C22.9 43.7 22.9 41.1 22.5 38.2C20.2 40.2 18.6 42.2 17.9 44Z" fill="#75D6FF"/>
    <path d="M19.8 56.3C19.2 57.9 19.7 59.5 20.9 59.9C22.1 60.3 23.5 59.4 24.1 57.8C24.8 56 24.8 53.4 24.4 50.5C22.1 52.4 20.5 54.4 19.8 56.3Z" fill="#75D6FF"/>
    <path d="M32.9 57.8C33.6 56 33.6 53.4 33.2 50.5C31 52.4 29.4 54.4 28.7 56.3C28.1 57.9 28.6 59.5 29.8 59.9C31 60.3 32.3 59.4 32.9 57.8Z" fill="#75D6FF"/>
    <path d="M42 50.5C39.8 52.4 38.2 54.4 37.5 56.3C36.9 57.9 37.4 59.5 38.6 59.9C39.8 60.3 41.2 59.4 41.8 57.8C42.4 56 42.5 53.4 42 50.5Z" fill="#75D6FF"/>
    <path d="M11 56.3C10.4 57.9 10.9 59.5 12.1 59.9C13.3 60.3 14.7 59.4 15.3 57.8C16 56 16 53.4 15.6 50.5C13.3 52.4 11.6 54.4 11 56.3Z" fill="#75D6FF"/>
</svg>
