<svg width="80" height="80" viewBox="0 0 80 80" fill="none"
    xmlns="http://www.w3.org/2000/svg">
    <path d="M24.6667 76.9334L34 67.3334C30.6667 66.6667 27.6 65.3334 24.8 63.4667L24.6667 76.9334Z" fill="#FFE62E"/>
    <path d="M55.3333 3.06669L46 12.6667C49.3333 13.3334 52.4 14.6667 55.2 16.5334L55.3333 3.06669Z" fill="#FFE62E"/>
    <path d="M3.0667 55.3333L16.5334 55.2C14.6667 52.4 13.3334 49.3333 12.6667 46L3.0667 55.3333Z" fill="#FFE62E"/>
    <path d="M76.9334 24.6667L63.4667 24.8C65.2 27.6 66.5334 30.6667 67.3334 34L76.9334 24.6667Z" fill="#FFE62E"/>
    <path d="M3.0667 24.6667L12.6667 34C13.3334 30.6667 14.6667 27.6 16.5334 24.8L3.0667 24.6667Z" fill="#FFE62E"/>
    <path d="M76.9334 55.3333L67.3334 46C66.6667 49.3333 65.3334 52.4 63.4667 55.2L76.9334 55.3333Z" fill="#FFE62E"/>
    <path d="M24.6667 3.06669L24.8 16.5334C27.6 14.8 30.6667 13.4667 34 12.6667L24.6667 3.06669Z" fill="#FFE62E"/>
    <path d="M55.3333 76.9334L55.2 63.4667C52.4 65.3334 49.3333 66.6667 46 67.3334L55.3333 76.9334Z" fill="#FFE62E"/>
    <path d="M17.0667 56L11.7333 68.4L24.1333 63.0667C21.3333 61.0667 18.9333 58.6667 17.0667 56Z" fill="#FFCE31"/>
    <path d="M62.9333 24L68.2667 11.6L56 16.9333C58.6667 18.9333 61.0667 21.3333 62.9333 24Z" fill="#FFCE31"/>
    <path d="M12.5333 35.0667L0 40L12.5333 44.9333C12.1333 43.3333 12 41.7333 12 40C12 38.2667 12.1333 36.6667 12.5333 35.0667Z" fill="#FFCE31"/>
    <path d="M67.4667 44.9333L80 40L67.4667 35.0667C67.7333 36.6667 68 38.4 68 40C68 41.7333 67.8667 43.3333 67.4667 44.9333Z" fill="#FFCE31"/>
    <path d="M24 17.0667L11.6 11.7333L16.9334 24.1333C18.9334 21.3333 21.3334 18.9333 24 17.0667Z" fill="#FFCE31"/>
    <path d="M56 62.9333L68.4 68.2667L63.0667 55.8667C61.0667 58.6667 58.6667 61.0667 56 62.9333Z" fill="#FFCE31"/>
    <path d="M44.9333 12.5333L40 0L35.0667 12.5333C36.6667 12.2667 38.4 12 40 12C41.6 12 43.3333 12.1333 44.9333 12.5333Z" fill="#FFCE31"/>
    <path d="M35.0667 67.4667L40 80L44.9333 67.4667C43.3333 67.8667 41.7333 68 40 68C38.2667 68 36.6667 67.8667 35.0667 67.4667Z" fill="#FFCE31"/>
    <path d="M40 65.3333C53.9912 65.3333 65.3333 53.9912 65.3333 40C65.3333 26.0088 53.9912 14.6667 40 14.6667C26.0088 14.6667 14.6667 26.0088 14.6667 40C14.6667 53.9912 26.0088 65.3333 40 65.3333Z" fill="#FFCE31"/>
</svg>
